<?xml version="1.0" encoding="UTF-8"?>
<svg xmlns="http://www.w3.org/2000/svg" xmlns:xlink="http://www.w3.org/1999/xlink" width="30pt" height="36.000001pt" viewBox="0 0 30 36.000001" version="1.2">
<defs>
<clipPath id="clip1">
  <path d="M 1.148438 0.65625 L 28.878906 0.65625 L 28.878906 29 L 1.148438 29 Z M 1.148438 0.65625 "/>
</clipPath>
<clipPath id="clip2">
  <path d="M 1.148438 22 L 28.878906 22 L 28.878906 32 L 1.148438 32 Z M 1.148438 22 "/>
</clipPath>
<clipPath id="clip3">
  <path d="M 6 26 L 14 26 L 14 34.226562 L 6 34.226562 Z M 6 26 "/>
</clipPath>
</defs>
<g id="surface1">
<path style=" stroke:none;fill-rule:nonzero;fill:rgb(37.649536%,65.879822%,100%);fill-opacity:1;" d="M 2.957031 28.011719 C 2.476562 28.011719 2.085938 27.625 2.085938 27.144531 L 2.085938 5.933594 C 2.054688 5.730469 2.039062 5.539062 2.039062 5.351562 C 2.039062 3.242188 3.765625 1.527344 5.882812 1.527344 L 24.152344 1.527344 C 26.269531 1.527344 27.992188 3.242188 27.992188 5.351562 C 27.992188 5.539062 27.976562 5.730469 27.945312 5.933594 L 27.945312 27.144531 C 27.945312 27.625 27.558594 28.011719 27.078125 28.011719 Z M 2.957031 28.011719 "/>
<g clip-path="url(#clip1)" clip-rule="nonzero">
<path style=" stroke:none;fill-rule:nonzero;fill:rgb(0%,15.689087%,44.709778%);fill-opacity:1;" d="M 24.152344 2.390625 C 25.792969 2.390625 27.125 3.71875 27.125 5.351562 C 27.125 5.527344 27.105469 5.695312 27.078125 5.863281 L 27.078125 27.144531 L 2.957031 27.144531 L 2.957031 5.863281 C 2.929688 5.695312 2.910156 5.527344 2.910156 5.351562 C 2.910156 3.714844 4.242188 2.390625 5.882812 2.390625 L 24.152344 2.390625 M 24.152344 0.664062 L 5.882812 0.664062 C 3.285156 0.664062 1.171875 2.765625 1.171875 5.351562 C 1.171875 5.5625 1.1875 5.777344 1.21875 5.996094 L 1.21875 27.144531 C 1.21875 28.101562 1.996094 28.875 2.957031 28.875 L 27.078125 28.875 C 28.039062 28.875 28.816406 28.101562 28.816406 27.144531 L 28.816406 5.996094 C 28.847656 5.777344 28.863281 5.5625 28.863281 5.351562 C 28.863281 2.765625 26.75 0.664062 24.152344 0.664062 Z M 24.152344 0.664062 "/>
</g>
<path style=" stroke:none;fill-rule:nonzero;fill:rgb(27.059937%,52.549744%,100%);fill-opacity:1;" d="M 6.253906 27.144531 L 6.253906 2.390625 L 5.882812 2.390625 C 4.242188 2.390625 2.910156 3.71875 2.910156 5.351562 C 2.910156 5.527344 2.929688 5.695312 2.957031 5.863281 L 2.957031 27.144531 Z M 6.253906 27.144531 "/>
<path style=" stroke:none;fill-rule:nonzero;fill:rgb(100%,100%,100%);fill-opacity:1;" d="M 5.882812 30.96875 C 3.765625 30.96875 2.039062 29.253906 2.039062 27.144531 C 2.039062 25.039062 3.765625 23.324219 5.882812 23.324219 L 24.152344 23.324219 C 26.269531 23.324219 27.992188 25.039062 27.992188 27.144531 C 27.992188 29.253906 26.269531 30.96875 24.152344 30.96875 Z M 5.882812 30.96875 "/>
<g clip-path="url(#clip2)" clip-rule="nonzero">
<path style=" stroke:none;fill-rule:nonzero;fill:rgb(0%,15.689087%,44.709778%);fill-opacity:1;" d="M 24.152344 24.1875 C 25.792969 24.1875 27.125 25.511719 27.125 27.144531 C 27.125 28.78125 25.792969 30.105469 24.152344 30.105469 L 5.882812 30.105469 C 4.242188 30.105469 2.910156 28.78125 2.910156 27.144531 C 2.910156 25.511719 4.242188 24.1875 5.882812 24.1875 L 24.152344 24.1875 M 24.152344 22.457031 L 5.882812 22.457031 C 3.285156 22.457031 1.171875 24.5625 1.171875 27.144531 C 1.171875 29.730469 3.285156 31.835938 5.882812 31.835938 L 24.152344 31.835938 C 26.75 31.835938 28.863281 29.730469 28.863281 27.144531 C 28.863281 24.5625 26.75 22.457031 24.152344 22.457031 Z M 24.152344 22.457031 "/>
</g>
<path style=" stroke:none;fill-rule:nonzero;fill:rgb(65.098572%,80.778503%,100%);fill-opacity:1;" d="M 2.925781 27.453125 C 3.078125 28.941406 4.34375 30.105469 5.882812 30.105469 L 24.152344 30.105469 C 25.6875 30.105469 26.953125 28.941406 27.109375 27.453125 Z M 2.925781 27.453125 "/>
<path style=" stroke:none;fill-rule:nonzero;fill:rgb(37.649536%,65.879822%,100%);fill-opacity:1;" d="M 11.820312 33.367188 C 11.640625 33.367188 11.460938 33.3125 11.308594 33.203125 L 9.824219 32.132812 L 8.34375 33.203125 C 8.191406 33.3125 8.011719 33.367188 7.832031 33.367188 C 7.695312 33.367188 7.5625 33.335938 7.4375 33.273438 C 7.144531 33.125 6.960938 32.828125 6.960938 32.503906 L 6.960938 28.519531 C 6.960938 28.042969 7.351562 27.652344 7.832031 27.652344 L 11.820312 27.652344 C 12.300781 27.652344 12.6875 28.042969 12.6875 28.519531 L 12.6875 32.503906 C 12.6875 32.828125 12.503906 33.125 12.214844 33.273438 C 12.089844 33.335938 11.953125 33.367188 11.820312 33.367188 Z M 11.820312 33.367188 "/>
<g clip-path="url(#clip3)" clip-rule="nonzero">
<path style=" stroke:none;fill-rule:nonzero;fill:rgb(0%,15.689087%,44.709778%);fill-opacity:1;" d="M 11.820312 28.519531 L 11.820312 32.503906 L 9.824219 31.066406 L 7.832031 32.503906 L 7.832031 28.519531 L 11.820312 28.519531 M 11.820312 26.789062 L 7.832031 26.789062 C 6.871094 26.789062 6.09375 27.5625 6.09375 28.519531 L 6.09375 32.503906 C 6.09375 33.152344 6.460938 33.75 7.042969 34.042969 C 7.292969 34.171875 7.5625 34.234375 7.832031 34.234375 C 8.191406 34.234375 8.550781 34.121094 8.851562 33.902344 L 9.824219 33.203125 L 10.796875 33.902344 C 11.101562 34.121094 11.457031 34.234375 11.820312 34.234375 C 12.089844 34.234375 12.359375 34.171875 12.609375 34.042969 C 13.191406 33.75 13.558594 33.152344 13.558594 32.503906 L 13.558594 28.519531 C 13.558594 27.5625 12.777344 26.789062 11.820312 26.789062 Z M 11.820312 26.789062 "/>
</g>
<path style=" stroke:none;fill-rule:nonzero;fill:rgb(0%,15.689087%,44.709778%);fill-opacity:1;" d="M 27.007812 28.570312 L 8.441406 28.570312 C 7.960938 28.570312 7.570312 28.183594 7.570312 27.707031 C 7.570312 27.230469 7.960938 26.839844 8.441406 26.839844 L 27.007812 26.839844 C 27.488281 26.839844 27.878906 27.230469 27.878906 27.707031 C 27.878906 28.183594 27.488281 28.570312 27.007812 28.570312 Z M 27.007812 28.570312 "/>
<path style=" stroke:none;fill-rule:nonzero;fill:rgb(0%,15.689087%,44.709778%);fill-opacity:1;" d="M 22 8.414062 L 9.824219 8.414062 C 9.34375 8.414062 8.957031 8.027344 8.957031 7.550781 C 8.957031 7.074219 9.34375 6.6875 9.824219 6.6875 L 22 6.6875 C 22.480469 6.6875 22.867188 7.074219 22.867188 7.550781 C 22.867188 8.027344 22.480469 8.414062 22 8.414062 Z M 22 8.414062 "/>
<path style=" stroke:none;fill-rule:nonzero;fill:rgb(0%,15.689087%,44.709778%);fill-opacity:1;" d="M 18.914062 12.851562 L 12.914062 12.851562 C 12.433594 12.851562 12.042969 12.464844 12.042969 11.988281 C 12.042969 11.511719 12.433594 11.121094 12.914062 11.121094 L 18.914062 11.121094 C 19.390625 11.121094 19.78125 11.511719 19.78125 11.988281 C 19.78125 12.464844 19.390625 12.851562 18.914062 12.851562 Z M 18.914062 12.851562 "/>
</g>
</svg>
